<?xml version="1.0" encoding="UTF-8"?>
<svg xmlns="http://www.w3.org/2000/svg" viewBox="-7, -7, 515, 515">

        <rect x="0" y="0" rx="5%" ry="5%" width="500" height="500" stroke="black" stroke-width="3%" fill="#e9e9e9" transform="translate(0 0)" />
        <line x1="0" y1="0" x2="500" y2="" stroke="black" stroke-width="3%" transform="translate(0 100)" />


        <rect x="0" y="0" rx="50%" ry="50%" width="3%" height="3%" stroke="black" stroke-width="3%" fill="#e9e9e9" transform="translate(200 200)" />
        <rect x="0" y="0" rx="50%" ry="50%" width="3%" height="3%" stroke="black" stroke-width="3%" fill="#e9e9e9" transform="translate(300 200)" />
        <rect x="0" y="0" rx="50%" ry="50%" width="3%" height="3%" stroke="black" stroke-width="3%" fill="#e9e9e9" transform="translate(400 200)" />
        <rect x="0" y="0" rx="50%" ry="50%" width="3%" height="3%" stroke="black" stroke-width="3%" fill="#e9e9e9" transform="translate(400 300)" />
        <rect x="0" y="0" rx="50%" ry="50%" width="3%" height="3%" stroke="black" stroke-width="3%" fill="#e9e9e9" transform="translate(300 300)" />
        <rect x="0" y="0" rx="50%" ry="50%" width="3%" height="3%" stroke="black" stroke-width="3%" fill="#e9e9e9" transform="translate(200 300)" />
        <rect x="0" y="0" rx="50%" ry="50%" width="3%" height="3%" stroke="black" stroke-width="3%" fill="#e9e9e9" transform="translate(100 300)" />
        <rect x="0" y="0" rx="50%" ry="50%" width="3%" height="3%" stroke="black" stroke-width="3%" fill="#e9e9e9" transform="translate(300 400)" />
        <rect x="0" y="0" rx="50%" ry="50%" width="3%" height="3%" stroke="black" stroke-width="3%" fill="#e9e9e9" transform="translate(200 400)" />
        <rect x="0" y="0" rx="50%" ry="50%" width="3%" height="3%" stroke="black" stroke-width="3%" fill="#e9e9e9" transform="translate(100 400)" />

</svg>